<mxfile host="app.diagrams.net" modified="2021-11-09T01:55:55.384Z" agent="5.0 (Windows NT 10.0; Win64; x64) AppleWebKit/537.36 (KHTML, like Gecko) Chrome/95.0.4638.69 Safari/537.36" etag="zkFPDh_-vkoK8Ilq0xom" version="15.7.0" type="github">
  <diagram id="aGHEyb8XXJ-ltuyLpizp" name="Page-1">
    <mxGraphModel dx="1422" dy="762" grid="1" gridSize="10" guides="1" tooltips="1" connect="1" arrows="1" fold="1" page="1" pageScale="1" pageWidth="850" pageHeight="1100" math="0" shadow="0">
      <root>
        <mxCell id="0" />
        <mxCell id="1" parent="0" />
        <mxCell id="ME_f_7puLrDNEvAWjNA0-54" value="" style="rhombus;whiteSpace=wrap;html=1;" parent="1" vertex="1">
          <mxGeometry x="420" y="280" width="180" height="80" as="geometry" />
        </mxCell>
        <mxCell id="ME_f_7puLrDNEvAWjNA0-24" value="" style="edgeStyle=orthogonalEdgeStyle;rounded=0;orthogonalLoop=1;jettySize=auto;html=1;" parent="1" source="ME_f_7puLrDNEvAWjNA0-1" target="ME_f_7puLrDNEvAWjNA0-23" edge="1">
          <mxGeometry relative="1" as="geometry" />
        </mxCell>
        <mxCell id="ME_f_7puLrDNEvAWjNA0-1" value="" style="ellipse;whiteSpace=wrap;html=1;aspect=fixed;" parent="1" vertex="1">
          <mxGeometry x="410" y="40" width="80" height="80" as="geometry" />
        </mxCell>
        <mxCell id="ME_f_7puLrDNEvAWjNA0-8" value="year_input" style="text;html=1;resizable=0;autosize=1;align=center;verticalAlign=middle;points=[];fillColor=none;strokeColor=none;rounded=0;" parent="1" vertex="1">
          <mxGeometry x="415" y="70" width="70" height="20" as="geometry" />
        </mxCell>
        <mxCell id="ME_f_7puLrDNEvAWjNA0-10" value="No" style="text;html=1;resizable=0;autosize=1;align=center;verticalAlign=middle;points=[];fillColor=none;strokeColor=none;rounded=0;" parent="1" vertex="1">
          <mxGeometry x="160" y="210" width="30" height="20" as="geometry" />
        </mxCell>
        <mxCell id="ME_f_7puLrDNEvAWjNA0-12" value="Yes" style="text;html=1;resizable=0;autosize=1;align=center;verticalAlign=middle;points=[];fillColor=none;strokeColor=none;rounded=0;" parent="1" vertex="1">
          <mxGeometry x="440" y="210" width="40" height="20" as="geometry" />
        </mxCell>
        <mxCell id="ME_f_7puLrDNEvAWjNA0-21" value="" style="edgeStyle=orthogonalEdgeStyle;rounded=0;orthogonalLoop=1;jettySize=auto;html=1;" parent="1" source="ME_f_7puLrDNEvAWjNA0-16" target="ME_f_7puLrDNEvAWjNA0-20" edge="1">
          <mxGeometry relative="1" as="geometry" />
        </mxCell>
        <mxCell id="ME_f_7puLrDNEvAWjNA0-35" value="" style="edgeStyle=orthogonalEdgeStyle;rounded=0;orthogonalLoop=1;jettySize=auto;html=1;" parent="1" source="ME_f_7puLrDNEvAWjNA0-20" target="ME_f_7puLrDNEvAWjNA0-34" edge="1">
          <mxGeometry relative="1" as="geometry" />
        </mxCell>
        <mxCell id="ME_f_7puLrDNEvAWjNA0-39" value="" style="edgeStyle=orthogonalEdgeStyle;rounded=0;orthogonalLoop=1;jettySize=auto;html=1;" parent="1" source="ME_f_7puLrDNEvAWjNA0-20" target="ME_f_7puLrDNEvAWjNA0-38" edge="1">
          <mxGeometry relative="1" as="geometry" />
        </mxCell>
        <mxCell id="ME_f_7puLrDNEvAWjNA0-20" value="" style="rhombus;whiteSpace=wrap;html=1;" parent="1" vertex="1">
          <mxGeometry x="385" y="470" width="250" height="80" as="geometry" />
        </mxCell>
        <mxCell id="ME_f_7puLrDNEvAWjNA0-26" value="" style="edgeStyle=orthogonalEdgeStyle;rounded=0;orthogonalLoop=1;jettySize=auto;html=1;" parent="1" source="ME_f_7puLrDNEvAWjNA0-23" target="ME_f_7puLrDNEvAWjNA0-25" edge="1">
          <mxGeometry relative="1" as="geometry" />
        </mxCell>
        <mxCell id="ME_f_7puLrDNEvAWjNA0-55" value="" style="edgeStyle=orthogonalEdgeStyle;rounded=0;orthogonalLoop=1;jettySize=auto;html=1;" parent="1" source="ME_f_7puLrDNEvAWjNA0-23" target="ME_f_7puLrDNEvAWjNA0-54" edge="1">
          <mxGeometry relative="1" as="geometry" />
        </mxCell>
        <mxCell id="ME_f_7puLrDNEvAWjNA0-23" value="" style="rhombus;whiteSpace=wrap;html=1;" parent="1" vertex="1">
          <mxGeometry x="230" y="190" width="180" height="80" as="geometry" />
        </mxCell>
        <mxCell id="ME_f_7puLrDNEvAWjNA0-9" value="year_input % 4 = 0" style="text;html=1;resizable=0;autosize=1;align=center;verticalAlign=middle;points=[];fillColor=none;strokeColor=none;rounded=0;" parent="1" vertex="1">
          <mxGeometry x="260" y="220" width="120" height="20" as="geometry" />
        </mxCell>
        <mxCell id="ME_f_7puLrDNEvAWjNA0-25" value="" style="whiteSpace=wrap;html=1;" parent="1" vertex="1">
          <mxGeometry x="30" y="200" width="120" height="60" as="geometry" />
        </mxCell>
        <mxCell id="ME_f_7puLrDNEvAWjNA0-14" value="Not leap year" style="text;html=1;resizable=0;autosize=1;align=center;verticalAlign=middle;points=[];fillColor=none;strokeColor=none;rounded=0;" parent="1" vertex="1">
          <mxGeometry x="40" y="220" width="90" height="20" as="geometry" />
        </mxCell>
        <mxCell id="ME_f_7puLrDNEvAWjNA0-53" value="" style="edgeStyle=orthogonalEdgeStyle;rounded=0;orthogonalLoop=1;jettySize=auto;html=1;" parent="1" source="ME_f_7puLrDNEvAWjNA0-27" target="ME_f_7puLrDNEvAWjNA0-52" edge="1">
          <mxGeometry relative="1" as="geometry" />
        </mxCell>
        <mxCell id="ME_f_7puLrDNEvAWjNA0-27" value="" style="rhombus;whiteSpace=wrap;html=1;" parent="1" vertex="1">
          <mxGeometry x="410" y="280" width="200" height="80" as="geometry" />
        </mxCell>
        <mxCell id="ME_f_7puLrDNEvAWjNA0-16" value="year_input % 100 = 0" style="text;html=1;resizable=0;autosize=1;align=center;verticalAlign=middle;points=[];fillColor=none;strokeColor=none;rounded=0;" parent="1" vertex="1">
          <mxGeometry x="445" y="310" width="130" height="20" as="geometry" />
        </mxCell>
        <mxCell id="ME_f_7puLrDNEvAWjNA0-31" value="Yes" style="text;html=1;resizable=0;autosize=1;align=center;verticalAlign=middle;points=[];fillColor=none;strokeColor=none;rounded=0;" parent="1" vertex="1">
          <mxGeometry x="510" y="410" width="40" height="20" as="geometry" />
        </mxCell>
        <mxCell id="ME_f_7puLrDNEvAWjNA0-32" value="No" style="text;html=1;resizable=0;autosize=1;align=center;verticalAlign=middle;points=[];fillColor=none;strokeColor=none;rounded=0;fontStyle=1" parent="1" vertex="1">
          <mxGeometry x="315" y="320" width="30" height="20" as="geometry" />
        </mxCell>
        <mxCell id="ME_f_7puLrDNEvAWjNA0-33" value="year_input % 400 = 0" style="text;html=1;resizable=0;autosize=1;align=center;verticalAlign=middle;points=[];fillColor=none;strokeColor=none;rounded=0;" parent="1" vertex="1">
          <mxGeometry x="445" y="500" width="130" height="20" as="geometry" />
        </mxCell>
        <mxCell id="ME_f_7puLrDNEvAWjNA0-34" value="" style="whiteSpace=wrap;html=1;" parent="1" vertex="1">
          <mxGeometry x="250" y="600" width="120" height="60" as="geometry" />
        </mxCell>
        <mxCell id="ME_f_7puLrDNEvAWjNA0-36" value="Yes" style="text;html=1;resizable=0;autosize=1;align=center;verticalAlign=middle;points=[];fillColor=none;strokeColor=none;rounded=0;" parent="1" vertex="1">
          <mxGeometry x="315" y="490" width="40" height="20" as="geometry" />
        </mxCell>
        <mxCell id="ME_f_7puLrDNEvAWjNA0-37" value="leap year" style="text;html=1;resizable=0;autosize=1;align=center;verticalAlign=middle;points=[];fillColor=none;strokeColor=none;rounded=0;" parent="1" vertex="1">
          <mxGeometry x="280" y="620" width="60" height="20" as="geometry" />
        </mxCell>
        <mxCell id="ME_f_7puLrDNEvAWjNA0-38" value="" style="whiteSpace=wrap;html=1;" parent="1" vertex="1">
          <mxGeometry x="650" y="600" width="120" height="60" as="geometry" />
        </mxCell>
        <mxCell id="ME_f_7puLrDNEvAWjNA0-40" value="No" style="text;html=1;resizable=0;autosize=1;align=center;verticalAlign=middle;points=[];fillColor=none;strokeColor=none;rounded=0;" parent="1" vertex="1">
          <mxGeometry x="710" y="530" width="30" height="20" as="geometry" />
        </mxCell>
        <mxCell id="ME_f_7puLrDNEvAWjNA0-41" value="Not leap year" style="text;html=1;resizable=0;autosize=1;align=center;verticalAlign=middle;points=[];fillColor=none;strokeColor=none;rounded=0;" parent="1" vertex="1">
          <mxGeometry x="665" y="620" width="90" height="20" as="geometry" />
        </mxCell>
        <mxCell id="ME_f_7puLrDNEvAWjNA0-52" value="" style="whiteSpace=wrap;html=1;" parent="1" vertex="1">
          <mxGeometry x="190" y="380" width="120" height="60" as="geometry" />
        </mxCell>
        <mxCell id="ME_f_7puLrDNEvAWjNA0-19" value="leap year" style="text;html=1;resizable=0;autosize=1;align=center;verticalAlign=middle;points=[];fillColor=none;strokeColor=none;rounded=0;" parent="1" vertex="1">
          <mxGeometry x="220" y="400" width="60" height="20" as="geometry" />
        </mxCell>
      </root>
    </mxGraphModel>
  </diagram>
</mxfile>
